STARTFONT 2.1
COMMENT
COMMENT Converted from OpenType font "kset.ttf" by "otf2bdf 3.0".
COMMENT
FONT -FreeType-Kset Regular4-Medium-R-Normal--17-120-100-100-P-66-ISO10646-1
SIZE 12 100 100
FONTBOUNDINGBOX 15 16 -1 -3
STARTPROPERTIES 19
FOUNDRY "FreeType"
FAMILY_NAME "Kset Regular4"
WEIGHT_NAME "Medium"
SLANT "R"
SETWIDTH_NAME "Normal"
ADD_STYLE_NAME ""
PIXEL_SIZE 17
POINT_SIZE 120
RESOLUTION_X 100
RESOLUTION_Y 100
SPACING "P"
AVERAGE_WIDTH 66
CHARSET_REGISTRY "ISO10646"
CHARSET_ENCODING "1"
FONT_ASCENT 12
FONT_DESCENT 4
COPYRIGHT "-FreeType-Kset Regular4-Medium-R-Normal--17-120-100-100-P-66-ISO10646-1"
_OTF_FONTFILE "kset.ttf"
_OTF_PSNAME "KsetRegular4"
ENDPROPERTIES
CHARS 92
STARTCHAR 0020
ENCODING 32
SWIDTH 240 0
DWIDTH 4 0
BBX 0 0 0 0
BITMAP
ENDCHAR
STARTCHAR 0021
ENCODING 33
SWIDTH 240 0
DWIDTH 4 0
BBX 2 9 1 0
BITMAP
C0
C0
C0
C0
C0
C0
00
C0
C0
ENDCHAR
STARTCHAR 0022
ENCODING 34
SWIDTH 360 0
DWIDTH 6 0
BBX 5 3 0 6
BITMAP
D8
D8
88
ENDCHAR
STARTCHAR 0027
ENCODING 39
SWIDTH 240 0
DWIDTH 4 0
BBX 2 3 1 6
BITMAP
C0
C0
40
ENDCHAR
STARTCHAR 0028
ENCODING 40
SWIDTH 360 0
DWIDTH 6 0
BBX 3 12 1 -2
BITMAP
60
60
C0
C0
C0
C0
C0
C0
C0
60
60
20
ENDCHAR
STARTCHAR 0029
ENCODING 41
SWIDTH 300 0
DWIDTH 5 0
BBX 3 12 1 -2
BITMAP
C0
C0
60
60
60
60
60
60
60
C0
C0
80
ENDCHAR
STARTCHAR 002A
ENCODING 42
SWIDTH 300 0
DWIDTH 5 0
BBX 4 4 0 6
BITMAP
20
F0
70
B0
ENDCHAR
STARTCHAR 002B
ENCODING 43
SWIDTH 360 0
DWIDTH 6 0
BBX 6 5 0 2
BITMAP
30
FC
FC
FC
30
ENDCHAR
STARTCHAR 002C
ENCODING 44
SWIDTH 240 0
DWIDTH 4 0
BBX 2 3 1 -1
BITMAP
C0
C0
C0
ENDCHAR
STARTCHAR 002D
ENCODING 45
SWIDTH 420 0
DWIDTH 7 0
BBX 5 2 1 3
BITMAP
F0
F8
ENDCHAR
STARTCHAR 002E
ENCODING 46
SWIDTH 240 0
DWIDTH 4 0
BBX 2 2 1 0
BITMAP
C0
C0
ENDCHAR
STARTCHAR 002F
ENCODING 47
SWIDTH 420 0
DWIDTH 7 0
BBX 5 11 1 -1
BITMAP
18
18
30
30
30
60
60
60
C0
C0
C0
ENDCHAR
STARTCHAR 0030
ENCODING 48
SWIDTH 480 0
DWIDTH 8 0
BBX 7 9 0 0
BITMAP
6C
6C
C6
C6
C6
C6
C6
6C
6C
ENDCHAR
STARTCHAR 0031
ENCODING 49
SWIDTH 360 0
DWIDTH 6 0
BBX 5 9 1 0
BITMAP
58
D8
D8
98
18
18
18
18
18
ENDCHAR
STARTCHAR 0032
ENCODING 50
SWIDTH 420 0
DWIDTH 7 0
BBX 6 9 1 0
BITMAP
70
F8
D8
D8
30
30
60
F8
FC
ENDCHAR
STARTCHAR 0033
ENCODING 51
SWIDTH 420 0
DWIDTH 7 0
BBX 6 9 1 0
BITMAP
D8
DC
0C
0C
38
3C
0C
DC
D8
ENDCHAR
STARTCHAR 0034
ENCODING 52
SWIDTH 420 0
DWIDTH 7 0
BBX 6 9 1 0
BITMAP
CC
CC
CC
CC
EC
6C
0C
0C
0C
ENDCHAR
STARTCHAR 0035
ENCODING 53
SWIDTH 420 0
DWIDTH 7 0
BBX 6 9 0 0
BITMAP
7C
7C
60
60
78
7C
0C
FC
F8
ENDCHAR
STARTCHAR 0036
ENCODING 54
SWIDTH 360 0
DWIDTH 6 0
BBX 7 9 0 0
BITMAP
3C
7C
C0
C0
DC
DE
C6
7E
3C
ENDCHAR
STARTCHAR 0037
ENCODING 55
SWIDTH 420 0
DWIDTH 7 0
BBX 7 9 0 0
BITMAP
76
FE
0C
0C
1C
18
38
30
30
ENDCHAR
STARTCHAR 0038
ENCODING 56
SWIDTH 420 0
DWIDTH 7 0
BBX 6 9 0 0
BITMAP
2C
6C
6C
34
38
9C
CC
EC
68
ENDCHAR
STARTCHAR 0039
ENCODING 57
SWIDTH 480 0
DWIDTH 8 0
BBX 7 9 0 0
BITMAP
78
FC
CE
F6
76
06
0E
DC
D8
ENDCHAR
STARTCHAR 003A
ENCODING 58
SWIDTH 240 0
DWIDTH 4 0
BBX 2 6 1 1
BITMAP
C0
C0
00
00
C0
C0
ENDCHAR
STARTCHAR 003B
ENCODING 59
SWIDTH 240 0
DWIDTH 4 0
BBX 2 8 1 -1
BITMAP
C0
C0
00
00
00
C0
C0
C0
ENDCHAR
STARTCHAR 003C
ENCODING 60
SWIDTH 840 0
DWIDTH 14 0
BBX 5 7 4 1
BITMAP
18
78
F0
E0
70
38
10
ENDCHAR
STARTCHAR 003D
ENCODING 61
SWIDTH 420 0
DWIDTH 7 0
BBX 5 6 1 2
BITMAP
F8
F8
00
00
F8
F8
ENDCHAR
STARTCHAR 003E
ENCODING 62
SWIDTH 840 0
DWIDTH 14 0
BBX 5 7 4 1
BITMAP
C0
E0
58
38
F8
E0
80
ENDCHAR
STARTCHAR 003F
ENCODING 63
SWIDTH 480 0
DWIDTH 8 0
BBX 5 9 1 0
BITMAP
70
F8
D8
F8
30
60
00
60
60
ENDCHAR
STARTCHAR 0040
ENCODING 64
SWIDTH 660 0
DWIDTH 11 0
BBX 0 0 0 0
BITMAP
ENDCHAR
STARTCHAR 0041
ENCODING 65
SWIDTH 480 0
DWIDTH 8 0
BBX 8 9 0 0
BITMAP
18
18
3C
34
36
7E
77
FB
C3
ENDCHAR
STARTCHAR 0042
ENCODING 66
SWIDTH 540 0
DWIDTH 9 0
BBX 7 9 1 0
BITMAP
DC
C6
C6
C6
DC
C6
C6
C6
DC
ENDCHAR
STARTCHAR 0043
ENCODING 67
SWIDTH 540 0
DWIDTH 9 0
BBX 7 9 1 0
BITMAP
3E
7E
C0
C0
C0
C0
C0
7E
3E
ENDCHAR
STARTCHAR 0044
ENCODING 68
SWIDTH 540 0
DWIDTH 9 0
BBX 7 9 1 0
BITMAP
DC
DC
CE
C6
C6
C6
CE
DC
DC
ENDCHAR
STARTCHAR 0045
ENCODING 69
SWIDTH 480 0
DWIDTH 8 0
BBX 6 9 1 0
BITMAP
DC
DC
C0
C0
DC
DC
C0
DC
DC
ENDCHAR
STARTCHAR 0046
ENCODING 70
SWIDTH 480 0
DWIDTH 8 0
BBX 6 9 1 0
BITMAP
DC
DC
C0
C0
DC
DC
C0
C0
C0
ENDCHAR
STARTCHAR 0047
ENCODING 71
SWIDTH 540 0
DWIDTH 9 0
BBX 7 9 1 0
BITMAP
3C
7C
C0
C0
DC
DE
C6
76
76
ENDCHAR
STARTCHAR 0048
ENCODING 72
SWIDTH 540 0
DWIDTH 9 0
BBX 7 9 1 0
BITMAP
C6
C6
C6
C6
F6
F6
C6
C6
C6
ENDCHAR
STARTCHAR 0049
ENCODING 73
SWIDTH 180 0
DWIDTH 3 0
BBX 2 9 0 0
BITMAP
C0
C0
C0
C0
C0
C0
C0
C0
C0
ENDCHAR
STARTCHAR 004A
ENCODING 74
SWIDTH 240 0
DWIDTH 4 0
BBX 4 12 -1 -3
BITMAP
30
30
30
30
30
30
30
30
30
30
B0
A0
ENDCHAR
STARTCHAR 004B
ENCODING 75
SWIDTH 540 0
DWIDTH 9 0
BBX 8 9 1 0
BITMAP
C6
C7
CE
DC
B8
B4
76
EF
C2
ENDCHAR
STARTCHAR 004C
ENCODING 76
SWIDTH 480 0
DWIDTH 8 0
BBX 6 9 1 0
BITMAP
C0
C0
C0
C0
C0
C0
C0
DC
DC
ENDCHAR
STARTCHAR 004D
ENCODING 77
SWIDTH 660 0
DWIDTH 11 0
BBX 9 9 1 0
BITMAP
C180
E380
7700
F680
BB80
DD80
C980
C180
C180
ENDCHAR
STARTCHAR 004E
ENCODING 78
SWIDTH 540 0
DWIDTH 9 0
BBX 7 9 1 0
BITMAP
C6
C6
E6
F6
BA
DE
CC
CE
C6
ENDCHAR
STARTCHAR 004F
ENCODING 79
SWIDTH 600 0
DWIDTH 10 0
BBX 8 9 1 0
BITMAP
3C
7E
C7
C3
C3
C3
C7
7E
3C
ENDCHAR
STARTCHAR 0050
ENCODING 80
SWIDTH 480 0
DWIDTH 8 0
BBX 6 9 1 0
BITMAP
D8
DC
CC
CC
DC
D8
C0
C0
C0
ENDCHAR
STARTCHAR 0051
ENCODING 81
SWIDTH 540 0
DWIDTH 9 0
BBX 7 10 1 -1
BITMAP
6C
EE
C6
C6
C6
C6
C6
EE
6E
06
ENDCHAR
STARTCHAR 0052
ENCODING 82
SWIDTH 540 0
DWIDTH 9 0
BBX 7 9 1 0
BITMAP
DC
C6
C6
C6
DC
C0
DC
CC
C6
ENDCHAR
STARTCHAR 0053
ENCODING 83
SWIDTH 480 0
DWIDTH 8 0
BBX 7 9 0 0
BITMAP
5E
E6
70
38
1C
0E
CE
FE
7C
ENDCHAR
STARTCHAR 0054
ENCODING 84
SWIDTH 480 0
DWIDTH 8 0
BBX 8 9 0 0
BITMAP
7F
FF
00
18
18
18
18
18
18
ENDCHAR
STARTCHAR 0055
ENCODING 85
SWIDTH 540 0
DWIDTH 9 0
BBX 7 9 1 0
BITMAP
C6
C6
C6
C6
C6
C6
C6
EE
6C
ENDCHAR
STARTCHAR 0056
ENCODING 86
SWIDTH 480 0
DWIDTH 8 0
BBX 8 9 0 0
BITMAP
C2
C7
E6
6E
6C
74
34
38
18
ENDCHAR
STARTCHAR 0057
ENCODING 87
SWIDTH 900 0
DWIDTH 15 0
BBX 14 9 0 0
BITMAP
430C
E38C
67CC
76DC
36D8
34E8
3C70
1870
1830
ENDCHAR
STARTCHAR 0058
ENCODING 88
SWIDTH 540 0
DWIDTH 9 0
BBX 7 9 1 0
BITMAP
C6
C6
EE
74
38
5C
6C
EE
C6
ENDCHAR
STARTCHAR 0059
ENCODING 89
SWIDTH 540 0
DWIDTH 9 0
BBX 7 9 1 0
BITMAP
C4
CE
EC
7C
58
78
30
30
70
ENDCHAR
STARTCHAR 005A
ENCODING 90
SWIDTH 540 0
DWIDTH 9 0
BBX 7 9 1 0
BITMAP
FE
EE
0E
1C
38
70
70
EE
FE
ENDCHAR
STARTCHAR 0061
ENCODING 97
SWIDTH 480 0
DWIDTH 8 0
BBX 8 9 0 0
BITMAP
18
18
3C
34
36
7E
77
FB
C3
ENDCHAR
STARTCHAR 0062
ENCODING 98
SWIDTH 540 0
DWIDTH 9 0
BBX 7 9 1 0
BITMAP
DC
DE
C6
C6
DC
DE
C6
DE
DC
ENDCHAR
STARTCHAR 0063
ENCODING 99
SWIDTH 540 0
DWIDTH 9 0
BBX 7 9 1 0
BITMAP
3E
7E
E0
C0
C0
C0
E0
7E
3E
ENDCHAR
STARTCHAR 0064
ENCODING 100
SWIDTH 540 0
DWIDTH 9 0
BBX 7 9 1 0
BITMAP
DC
DC
CE
C6
C6
C6
CE
DC
DC
ENDCHAR
STARTCHAR 0065
ENCODING 101
SWIDTH 480 0
DWIDTH 8 0
BBX 6 9 1 0
BITMAP
DC
DC
C0
C0
DC
DC
C0
DC
DC
ENDCHAR
STARTCHAR 0066
ENCODING 102
SWIDTH 480 0
DWIDTH 8 0
BBX 6 9 1 0
BITMAP
DC
DC
C0
C0
DC
DC
C0
C0
C0
ENDCHAR
STARTCHAR 0067
ENCODING 103
SWIDTH 540 0
DWIDTH 9 0
BBX 7 9 1 0
BITMAP
3C
7C
E0
C0
DC
DE
C6
76
76
ENDCHAR
STARTCHAR 0068
ENCODING 104
SWIDTH 540 0
DWIDTH 9 0
BBX 7 9 1 0
BITMAP
C6
C6
C6
C6
F6
F6
C6
C6
C6
ENDCHAR
STARTCHAR 0069
ENCODING 105
SWIDTH 180 0
DWIDTH 3 0
BBX 2 9 0 0
BITMAP
C0
C0
C0
C0
C0
C0
C0
C0
C0
ENDCHAR
STARTCHAR 006A
ENCODING 106
SWIDTH 240 0
DWIDTH 4 0
BBX 4 12 -1 -3
BITMAP
30
30
30
30
30
30
30
30
30
30
F0
E0
ENDCHAR
STARTCHAR 006B
ENCODING 107
SWIDTH 540 0
DWIDTH 9 0
BBX 8 9 1 0
BITMAP
C6
C7
CE
DC
B8
B4
76
EF
C2
ENDCHAR
STARTCHAR 006C
ENCODING 108
SWIDTH 480 0
DWIDTH 8 0
BBX 6 9 1 0
BITMAP
C0
C0
C0
C0
C0
C0
C0
DC
DC
ENDCHAR
STARTCHAR 006D
ENCODING 109
SWIDTH 660 0
DWIDTH 11 0
BBX 9 9 1 0
BITMAP
C180
E380
7700
F680
BB80
DD80
C980
C180
C180
ENDCHAR
STARTCHAR 006E
ENCODING 110
SWIDTH 540 0
DWIDTH 9 0
BBX 7 9 1 0
BITMAP
C6
C6
E6
F6
BA
DE
CC
CE
C6
ENDCHAR
STARTCHAR 006F
ENCODING 111
SWIDTH 600 0
DWIDTH 10 0
BBX 8 9 1 0
BITMAP
3C
7E
E7
C3
C3
C3
E7
7E
3C
ENDCHAR
STARTCHAR 0070
ENCODING 112
SWIDTH 540 0
DWIDTH 9 0
BBX 7 9 1 0
BITMAP
DC
DE
C6
C6
DE
DC
C0
C0
C0
ENDCHAR
STARTCHAR 0071
ENCODING 113
SWIDTH 540 0
DWIDTH 9 0
BBX 7 10 1 -1
BITMAP
6C
6C
C6
C6
C6
C6
C6
6C
6E
06
ENDCHAR
STARTCHAR 0072
ENCODING 114
SWIDTH 540 0
DWIDTH 9 0
BBX 7 9 1 0
BITMAP
DC
DE
C6
C6
DE
DC
DC
CC
C6
ENDCHAR
STARTCHAR 0073
ENCODING 115
SWIDTH 480 0
DWIDTH 8 0
BBX 7 9 0 0
BITMAP
DE
E6
70
38
1C
0E
CE
FE
FC
ENDCHAR
STARTCHAR 0074
ENCODING 116
SWIDTH 480 0
DWIDTH 8 0
BBX 8 9 0 0
BITMAP
7F
FF
00
18
18
18
18
18
18
ENDCHAR
STARTCHAR 0075
ENCODING 117
SWIDTH 540 0
DWIDTH 9 0
BBX 7 9 1 0
BITMAP
C6
C6
C6
C6
C6
C6
C6
FE
7C
ENDCHAR
STARTCHAR 0076
ENCODING 118
SWIDTH 480 0
DWIDTH 8 0
BBX 8 9 0 0
BITMAP
C2
C7
E6
6E
6C
74
34
38
18
ENDCHAR
STARTCHAR 0077
ENCODING 119
SWIDTH 900 0
DWIDTH 15 0
BBX 14 9 0 0
BITMAP
430C
E38C
67CC
76DC
36D8
34E8
3C70
1870
1830
ENDCHAR
STARTCHAR 0078
ENCODING 120
SWIDTH 540 0
DWIDTH 9 0
BBX 7 9 1 0
BITMAP
C6
C6
EE
74
38
5C
6C
EE
C6
ENDCHAR
STARTCHAR 0079
ENCODING 121
SWIDTH 540 0
DWIDTH 9 0
BBX 7 9 1 0
BITMAP
C4
CE
EC
7C
58
78
30
30
70
ENDCHAR
STARTCHAR 007A
ENCODING 122
SWIDTH 540 0
DWIDTH 9 0
BBX 7 9 1 0
BITMAP
FE
EE
0E
1C
38
70
70
EE
FE
ENDCHAR
STARTCHAR 00A0
ENCODING 160
SWIDTH 240 0
DWIDTH 4 0
BBX 0 0 0 0
BITMAP
ENDCHAR
STARTCHAR 0106
ENCODING 262
SWIDTH 540 0
DWIDTH 9 0
BBX 7 13 1 0
BITMAP
06
0E
18
00
3E
7E
C0
C0
C0
C0
C0
7E
3E
ENDCHAR
STARTCHAR 0107
ENCODING 263
SWIDTH 540 0
DWIDTH 9 0
BBX 7 13 1 0
BITMAP
06
0E
18
00
3E
7E
E0
C0
C0
C0
E0
7E
3E
ENDCHAR
STARTCHAR 010C
ENCODING 268
SWIDTH 480 0
DWIDTH 8 0
BBX 7 13 0 0
BITMAP
66
3C
18
00
3E
7E
C0
C0
C0
C0
C0
7E
3E
ENDCHAR
STARTCHAR 010D
ENCODING 269
SWIDTH 480 0
DWIDTH 8 0
BBX 7 13 0 0
BITMAP
66
3C
18
00
3E
7E
E0
C0
C0
C0
E0
7E
3E
ENDCHAR
STARTCHAR 0110
ENCODING 272
SWIDTH 540 0
DWIDTH 9 0
BBX 7 9 1 0
BITMAP
DC
DC
CE
C6
F6
F6
CE
DC
DC
ENDCHAR
STARTCHAR 0111
ENCODING 273
SWIDTH 540 0
DWIDTH 9 0
BBX 7 9 1 0
BITMAP
DC
DC
CE
C6
F6
F6
CE
DC
DC
ENDCHAR
STARTCHAR 0160
ENCODING 352
SWIDTH 480 0
DWIDTH 8 0
BBX 7 13 0 0
BITMAP
66
3C
18
00
5E
E6
70
38
1C
0E
CE
FE
7C
ENDCHAR
STARTCHAR 0161
ENCODING 353
SWIDTH 480 0
DWIDTH 8 0
BBX 7 13 0 0
BITMAP
66
3C
18
00
DE
E6
70
38
1C
0E
CE
FE
FC
ENDCHAR
STARTCHAR 017D
ENCODING 381
SWIDTH 540 0
DWIDTH 9 0
BBX 7 13 1 0
BITMAP
44
7C
38
00
FE
EE
0E
1C
38
70
70
EE
FE
ENDCHAR
STARTCHAR 017E
ENCODING 382
SWIDTH 540 0
DWIDTH 9 0
BBX 7 13 1 0
BITMAP
44
7C
38
00
FE
EE
0E
1C
38
70
70
EE
FE
ENDCHAR
ENDFONT
